<svg width="69" height="32" viewBox="0 0 69 32" fill="none" xmlns="http://www.w3.org/2000/svg">
<path d="M28.3487 4.78267L34.1372 4.02832L30.9443 28.1219L25.1558 28.8762L28.3487 4.78267Z" fill="#ECA72B"/>
<path d="M34.5739 19.9379L36.7332 3.68504L42.5217 2.93068L40.3625 19.3436C40.0639 21.5152 40.5922 22.3838 41.9475 22.2695C43.2797 22.1552 43.877 21.2409 44.2445 18.5435L46.3808 2.45064L52.1693 1.69629L50.0331 17.7891C49.275 23.3668 46.6564 26.5442 41.1205 27.2528C35.5387 27.9615 33.8618 25.3327 34.5739 19.9379Z" fill="#ECA72B"/>
<path d="M54.719 1.62793C54.719 1.62793 56.1432 0.736425 60.6224 0.142087C65.4003 -0.497969 69.6957 0.850722 68.7999 7.77705C67.7432 15.9378 63.3329 16.9436 59.1752 17.4922L58.3253 17.6065L57.3606 24.6928L51.572 25.4472L54.719 1.62793ZM59.7955 12.7603C61.4493 12.5318 62.5519 11.3659 63.0113 7.95992C63.3559 5.37684 62.5749 4.75964 61.0359 4.96537C60.3238 5.05681 59.9103 5.26254 59.9103 5.26254L58.9226 12.8746L59.7955 12.7603Z" fill="#ECA72B"/>
<path d="M14.2679 30.316L9.19146 30.9789L9.53601 28.3044C9.53601 28.3044 8.41046 31.5047 5.14865 31.939C1.86387 32.3734 -0.731791 30.5675 0.187029 23.7326C1.12882 16.7148 5.30945 14.086 9.32928 13.4917C13.0735 12.9659 16.3812 14.2689 16.3812 14.2689L14.2679 30.316ZM9.39819 24.0069C9.55898 22.8182 10.1103 18.5664 10.1103 18.5664C10.1103 18.5664 9.55898 18.3835 8.82393 18.4978C7.35382 18.7264 6.435 20.1894 6.0445 23.0697C5.63103 26.2014 6.32015 26.8872 7.51461 26.75C8.54828 26.6357 9.19146 25.607 9.39819 24.0069Z" fill="#ECA72B"/>
<path d="M19.9646 5.90279L25.7532 5.14844L22.5603 29.242L16.7717 29.9963L19.9646 5.90279Z" fill="#ECA72B"/>
</svg>
